<?xml version="1.0" standalone="no"?>
<!DOCTYPE svg PUBLIC "-//W3C//DTD SVG 20010904//EN"
 "http://www.w3.org/TR/2001/REC-SVG-20010904/DTD/svg10.dtd">
<svg version="1.0" xmlns="http://www.w3.org/2000/svg"
 width="236.000000pt" height="260.000000pt" viewBox="0 0 236.000000 260.000000"
 preserveAspectRatio="xMidYMid meet">

<g transform="translate(0.000000,260.000000) scale(0.100000,-0.100000)"
fill="#000000" stroke="none">
<path d="M257 2556 c-60 -16 -113 -59 -152 -121 l-30 -48 -3 -1071 c-3 -1218
-8 -1141 77 -1226 84 -84 31 -80 1041 -80 988 0 954 -2 1031 67 22 20 50 55
62 77 l22 41 3 1075 c2 798 0 1086 -9 1118 -14 52 -77 125 -133 155 l-41 22
-910 2 c-721 2 -920 -1 -958 -11z m1900 -98 c22 -14 48 -43 59 -65 18 -37 19
-78 22 -1093 2 -945 1 -1059 -13 -1097 -18 -47 -71 -99 -113 -110 -15 -5 -434
-8 -932 -8 -836 0 -907 1 -936 17 -44 24 -81 72 -94 119 -8 27 -10 366 -8
1087 3 1145 -1 1073 60 1129 60 56 4 53 999 51 l915 -3 41 -27z"/>
<path d="M1063 2349 c-86 -13 -221 -62 -306 -112 -134 -79 -327 -295 -297
-332 7 -8 16 -15 20 -15 4 0 24 26 45 57 42 63 123 153 137 153 5 0 24 -11 41
-24 18 -14 60 -39 95 -56 62 -30 63 -32 57 -63 -4 -18 -8 -36 -9 -42 0 -5 9
-11 20 -13 17 -2 24 4 32 27 13 35 23 37 102 16 95 -26 224 -29 330 -10 52 10
107 20 121 22 23 4 28 1 34 -26 4 -21 13 -31 25 -31 27 0 31 13 18 51 -8 25
-8 34 0 37 6 2 53 28 103 59 l91 55 47 -46 c25 -25 64 -73 86 -105 43 -65 43
-65 65 -51 43 27 -149 246 -293 335 -165 101 -367 142 -564 114z m220 -79 c25
-16 60 -48 78 -72 36 -50 89 -151 89 -171 0 -29 -178 -62 -299 -54 -98 6 -221
34 -221 51 0 6 15 41 33 77 92 182 205 242 320 169z m-273 6 c0 -2 -16 -28
-36 -57 -20 -30 -50 -82 -66 -117 -25 -56 -31 -62 -51 -57 -32 10 -140 78
-144 91 -6 17 103 80 194 114 74 28 103 35 103 26z m493 -36 c71 -30 167 -87
167 -99 0 -5 -8 -15 -17 -23 -23 -20 -127 -78 -139 -78 -6 0 -26 32 -45 72
-19 40 -49 91 -66 115 -18 24 -33 46 -33 49 0 10 63 -7 133 -36z"/>
<path d="M867 1829 c-82 -19 -154 -74 -176 -132 -6 -16 -11 -48 -11 -72 0
-118 66 -175 244 -211 100 -19 126 -34 110 -60 -15 -26 -62 -35 -121 -24 -53
9 -127 41 -138 60 -12 19 -24 10 -71 -56 -46 -64 -47 -67 -28 -81 155 -116
438 -107 520 17 29 43 43 124 30 174 -9 38 -60 91 -109 114 -23 11 -80 27
-127 37 -101 20 -120 29 -120 55 0 41 113 39 198 -4 l50 -25 42 56 c23 31 44
62 47 69 7 18 -86 63 -166 80 -74 15 -118 16 -174 3z"/>
<path d="M1560 1824 c-105 -28 -181 -91 -224 -183 -30 -65 -30 -207 0 -272 63
-135 197 -208 361 -196 211 16 349 188 312 391 -14 77 -37 121 -91 172 -94 91
-226 123 -358 88z m180 -169 c100 -51 116 -201 30 -279 -139 -126 -333 37
-249 210 27 58 70 84 137 84 29 0 66 -7 82 -15z"/>
<path d="M370 1505 l0 -325 90 0 90 0 0 325 0 325 -90 0 -90 0 0 -325z"/>
<path d="M465 1106 c-19 -13 -18 -16 20 -72 115 -174 308 -309 515 -360 157
-39 380 -18 534 50 127 56 265 171 352 292 49 68 52 79 27 93 -14 7 -24 0 -53
-44 -48 -73 -121 -155 -138 -155 -7 0 -32 13 -55 29 -23 15 -66 40 -95 55 -47
24 -52 29 -46 52 12 47 10 59 -13 62 -17 2 -23 -3 -28 -27 -4 -17 -10 -33 -13
-35 -4 -2 -41 5 -82 15 -120 31 -315 26 -439 -10 -38 -12 -51 -7 -51 17 0 29
-16 45 -38 38 -18 -6 -19 -11 -11 -39 13 -46 14 -44 -43 -73 -29 -15 -72 -40
-95 -55 -23 -16 -46 -29 -51 -29 -14 0 -95 90 -137 153 -21 31 -39 57 -40 57
0 0 -10 -6 -20 -14z m830 -76 c97 -15 145 -29 151 -45 9 -22 -55 -142 -104
-196 -49 -55 -106 -89 -148 -89 -44 0 -110 38 -154 88 -44 50 -116 185 -106
200 12 19 152 48 251 50 22 1 72 -3 110 -8z m-382 -132 c19 -40 50 -94 70
-120 19 -25 33 -48 30 -51 -15 -16 -224 75 -283 123 l-25 20 25 20 c27 21 131
79 142 80 4 0 23 -33 41 -72z m677 30 c41 -24 75 -50 75 -57 0 -34 -283 -170
-293 -142 -2 5 13 30 33 56 19 26 50 78 68 116 17 38 34 69 37 69 3 0 39 -19
80 -42z"/>
<path d="M250 400 l0 -130 25 0 25 0 0 130 0 130 -25 0 -25 0 0 -130z"/>
<path d="M383 515 c-51 -36 -34 -99 37 -135 66 -34 43 -76 -27 -51 -31 11 -36
11 -48 -6 -21 -28 4 -46 72 -51 71 -5 103 18 103 73 0 35 -15 52 -80 88 -42
23 -34 42 18 40 34 -1 42 2 48 19 4 13 1 24 -7 29 -22 14 -93 10 -116 -6z"/>
<path d="M591 504 c-95 -79 -43 -234 78 -234 99 0 161 102 116 190 -38 73
-134 95 -194 44z m124 -49 c16 -15 25 -36 25 -55 0 -35 -38 -80 -68 -80 -38 0
-67 34 -67 80 0 72 62 104 110 55z"/>
<path d="M1159 520 c-9 -5 -24 -21 -33 -34 -15 -24 -15 -26 5 -37 18 -9 25 -7
46 16 26 28 40 29 56 3 18 -27 -2 -67 -63 -128 -33 -33 -60 -62 -60 -65 0 -3
45 -5 100 -5 l100 0 0 25 c0 23 -4 25 -47 25 l-47 0 41 43 c22 23 43 51 47 61
9 26 -11 84 -34 96 -23 13 -90 12 -111 0z"/>
<path d="M1392 514 c-12 -8 -26 -24 -32 -34 -8 -15 -6 -21 11 -30 17 -10 24
-7 45 15 20 21 27 24 44 15 38 -20 25 -57 -45 -129 -36 -37 -65 -71 -65 -74 0
-4 45 -7 100 -7 l100 0 0 25 c0 23 -4 25 -46 25 l-47 0 42 45 c34 36 41 52 41
84 0 31 -6 44 -26 60 -32 25 -90 28 -122 5z"/>
<path d="M1612 514 c-12 -8 -22 -21 -22 -28 0 -22 31 -28 51 -10 9 9 26 14 36
12 26 -5 29 -44 4 -58 -27 -14 -27 -33 2 -45 14 -7 22 -19 22 -35 0 -20 -6
-26 -30 -28 -19 -3 -33 2 -41 13 -10 13 -17 14 -33 5 -28 -14 -26 -24 5 -49
75 -59 189 11 150 91 -11 21 -12 36 -6 54 12 30 -2 69 -29 83 -29 16 -83 13
-109 -5z"/>
<path d="M1837 519 c-30 -17 -47 -65 -47 -129 0 -55 3 -65 29 -91 38 -38 97
-40 137 -5 24 20 28 33 32 88 4 71 -12 119 -47 138 -25 13 -81 12 -104 -1z
m83 -54 c18 -22 22 -87 8 -115 -32 -59 -93 -13 -84 63 7 61 46 88 76 52z"/>
<path d="M2053 507 c-24 -16 -33 -30 -33 -50 0 -25 2 -27 20 -17 19 10 20 8
20 -80 l0 -90 30 0 30 0 0 130 c0 146 -3 150 -67 107z"/>
<path d="M927 434 c-13 -13 -7 -52 8 -58 27 -10 46 5 43 33 -3 26 -35 41 -51
25z"/>
<path d="M932 331 c-8 -4 -12 -19 -10 -32 2 -18 9 -24 28 -24 19 0 26 6 28 24
3 20 -11 41 -28 41 -3 0 -11 -4 -18 -9z"/>
</g>
</svg>
