<?xml version="1.0" standalone="no"?>
<!DOCTYPE svg PUBLIC "-//W3C//DTD SVG 20010904//EN"
 "http://www.w3.org/TR/2001/REC-SVG-20010904/DTD/svg10.dtd">
<svg version="1.0" xmlns="http://www.w3.org/2000/svg"
 width="236.000000pt" height="260.000000pt" viewBox="0 0 236.000000 260.000000"
 preserveAspectRatio="xMidYMid meet">

<g transform="translate(0.000000,260.000000) scale(0.100000,-0.100000)"
fill="#000000" stroke="none">
<path d="M257 2556 c-60 -16 -113 -59 -152 -121 l-30 -48 -3 -1071 c-3 -1218
-8 -1141 77 -1226 84 -84 31 -80 1041 -80 988 0 954 -2 1031 67 22 20 50 55
62 77 l22 41 3 1075 c2 798 0 1086 -9 1118 -14 52 -77 125 -133 155 l-41 22
-910 2 c-721 2 -920 -1 -958 -11z m1900 -98 c22 -14 48 -43 59 -65 18 -37 19
-78 22 -1093 2 -945 1 -1059 -13 -1097 -18 -47 -71 -99 -113 -110 -15 -5 -434
-8 -932 -8 -836 0 -907 1 -936 17 -44 24 -81 72 -94 119 -8 27 -10 366 -8
1087 3 1145 -1 1073 60 1129 60 56 4 53 999 51 l915 -3 41 -27z"/>
<path d="M1063 2349 c-86 -13 -221 -62 -306 -112 -134 -79 -327 -295 -297
-332 7 -8 16 -15 20 -15 4 0 24 26 45 57 42 63 123 153 137 153 5 0 24 -11 41
-24 18 -14 60 -39 95 -56 62 -30 63 -32 57 -63 -4 -18 -8 -36 -9 -42 0 -5 9
-11 20 -13 17 -2 24 4 32 27 13 35 23 37 102 16 95 -26 224 -29 330 -10 52 10
107 20 121 22 23 4 28 1 34 -26 4 -21 13 -31 25 -31 27 0 31 13 18 51 -8 25
-8 34 0 37 6 2 53 28 103 59 l91 55 47 -46 c25 -25 64 -73 86 -105 43 -65 43
-65 65 -51 43 27 -149 246 -293 335 -165 101 -367 142 -564 114z m220 -79 c25
-16 60 -48 78 -72 36 -50 89 -151 89 -171 0 -29 -178 -62 -299 -54 -98 6 -221
34 -221 51 0 6 15 41 33 77 92 182 205 242 320 169z m-273 6 c0 -2 -16 -28
-36 -57 -20 -30 -50 -82 -66 -117 -25 -56 -31 -62 -51 -57 -32 10 -140 78
-144 91 -6 17 103 80 194 114 74 28 103 35 103 26z m493 -36 c71 -30 167 -87
167 -99 0 -5 -8 -15 -17 -23 -23 -20 -127 -78 -139 -78 -6 0 -26 32 -45 72
-19 40 -49 91 -66 115 -18 24 -33 46 -33 49 0 10 63 -7 133 -36z"/>
<path d="M867 1829 c-82 -19 -154 -74 -176 -132 -6 -16 -11 -48 -11 -72 0
-118 66 -175 244 -211 100 -19 126 -34 110 -60 -15 -26 -62 -35 -121 -24 -53
9 -127 41 -138 60 -12 19 -24 10 -71 -56 -46 -64 -47 -67 -28 -81 155 -116
438 -107 520 17 29 43 43 124 30 174 -9 38 -60 91 -109 114 -23 11 -80 27
-127 37 -101 20 -120 29 -120 55 0 41 113 39 198 -4 l50 -25 42 56 c23 31 44
62 47 69 7 18 -86 63 -166 80 -74 15 -118 16 -174 3z"/>
<path d="M1560 1824 c-105 -28 -181 -91 -224 -183 -30 -65 -30 -207 0 -272 63
-135 197 -208 361 -196 211 16 349 188 312 391 -14 77 -37 121 -91 172 -94 91
-226 123 -358 88z m180 -169 c100 -51 116 -201 30 -279 -139 -126 -333 37
-249 210 27 58 70 84 137 84 29 0 66 -7 82 -15z"/>
<path d="M370 1505 l0 -325 90 0 90 0 0 325 0 325 -90 0 -90 0 0 -325z"/>
<path d="M465 1106 c-19 -13 -18 -16 20 -72 115 -174 308 -309 515 -360 157
-39 380 -18 534 50 127 56 265 171 352 292 49 68 52 79 27 93 -14 7 -24 0 -53
-44 -48 -73 -121 -155 -138 -155 -7 0 -32 13 -55 29 -23 15 -66 40 -95 55 -47
24 -52 29 -46 52 12 47 10 59 -13 62 -17 2 -23 -3 -28 -27 -4 -17 -10 -33 -13
-35 -4 -2 -41 5 -82 15 -120 31 -315 26 -439 -10 -38 -12 -51 -7 -51 17 0 29
-16 45 -38 38 -18 -6 -19 -11 -11 -39 13 -46 14 -44 -43 -73 -29 -15 -72 -40
-95 -55 -23 -16 -46 -29 -51 -29 -14 0 -95 90 -137 153 -21 31 -39 57 -40 57
0 0 -10 -6 -20 -14z m830 -76 c97 -15 145 -29 151 -45 9 -22 -55 -142 -104
-196 -49 -55 -106 -89 -148 -89 -44 0 -110 38 -154 88 -44 50 -116 185 -106
200 12 19 152 48 251 50 22 1 72 -3 110 -8z m-382 -132 c19 -40 50 -94 70
-120 19 -25 33 -48 30 -51 -15 -16 -224 75 -283 123 l-25 20 25 20 c27 21 131
79 142 80 4 0 23 -33 41 -72z m677 30 c41 -24 75 -50 75 -57 0 -34 -283 -170
-293 -142 -2 5 13 30 33 56 19 26 50 78 68 116 17 38 34 69 37 69 3 0 39 -19
80 -42z"/>
<path d="M250 400 l0 -130 30 0 30 0 0 130 0 130 -30 0 -30 0 0 -130z"/>
<path d="M382 507 c-37 -39 -28 -89 22 -114 51 -25 68 -44 55 -60 -15 -17 -49
-17 -75 2 -20 13 -22 12 -33 -12 -6 -14 -10 -27 -9 -28 19 -15 55 -25 93 -25
35 0 51 6 70 25 47 46 28 93 -54 135 -29 14 -39 25 -34 36 5 12 15 15 45 11
30 -4 40 -1 48 14 23 42 -90 56 -128 16z"/>
<path d="M594 497 c-28 -26 -37 -42 -41 -78 -10 -89 43 -149 130 -149 119 0
169 156 76 234 -24 20 -41 26 -80 26 -42 0 -55 -5 -85 -33z m127 -36 c33 -27
33 -95 0 -122 -31 -26 -57 -24 -86 6 -31 30 -32 73 -4 109 24 31 57 34 90 7z"/>
<path d="M1147 502 c-32 -34 -33 -38 -8 -52 16 -8 25 -5 45 15 21 21 29 24 46
15 38 -20 19 -69 -59 -145 -28 -27 -51 -53 -51 -57 0 -4 45 -8 100 -8 l100 0
0 25 c0 23 -4 25 -47 25 l-47 0 31 32 c60 64 69 113 28 153 -36 37 -102 35
-138 -3z"/>
<path d="M1360 505 c0 -24 3 -25 55 -25 30 0 55 -2 55 -4 0 -3 -25 -47 -55
-100 -30 -52 -55 -98 -55 -101 0 -3 14 -5 32 -3 30 3 37 12 100 123 37 66 68
123 68 128 0 4 -45 7 -100 7 l-100 0 0 -25z"/>
<path d="M1607 509 c-55 -43 -59 -159 -7 -211 31 -30 83 -38 122 -17 40 21 61
122 39 182 -25 65 -102 88 -154 46z m93 -48 c14 -27 13 -114 -2 -129 -21 -21
-58 -14 -68 14 -24 61 -5 134 34 134 15 0 30 -8 36 -19z"/>
<path d="M1827 505 c-26 -18 -37 -33 -37 -50 0 -25 14 -33 25 -15 17 27 25 2
25 -80 0 -89 0 -90 25 -90 l25 0 0 130 c0 145 -1 147 -63 105z"/>
<path d="M1940 505 c0 -22 4 -24 55 -27 l54 -3 -59 -102 -59 -103 34 0 c33 0
36 4 104 125 39 69 71 127 71 130 0 3 -45 5 -100 5 -99 0 -100 0 -100 -25z"/>
<path d="M927 426 c-14 -35 23 -67 50 -45 8 7 13 22 11 33 -4 26 -52 35 -61
12z"/>
<path d="M936 324 c-10 -9 -15 -23 -12 -31 3 -8 6 -17 6 -19 0 -2 11 -4 25 -4
29 0 43 25 28 48 -14 23 -29 25 -47 6z"/>
</g>
</svg>
