<svg xmlns="http://www.w3.org/2000/svg" enable-background="new 0 0 24 24" viewBox="0 0 24 24"><path fill="#F44336" d="M13.255,24c4.618,0,9.245-1.629,9.245-6.849c0-3.082-2.213-5.458-5.278-5.797v-0.067c2.519-0.745,4.243-2.54,4.243-5.253c0-4.372-3.797-6.032-7.481-6.032L1.501,0H1.5v0.357l1.254,1.046c1.504,1.204,1.7,1.439,1.7,2.526V24H13.255L13.255,24z M12.392,3.664c2.426,0,3.177,0.327,3.912,1.013c0.559,0.521,0.813,1.237,0.816,2.07c0,0.775-0.271,1.466-0.846,2.004c-0.718,0.676-1.704,1.011-3.504,1.011H8.806V3.664H12.392L12.392,3.664z M8.804,13.422L8.804,13.422h4.173c3.518,0,5.176,0.881,5.176,3.39c0,3.153-3.109,3.526-5.349,3.526H8.804V13.422L8.804,13.422z"/><polygon fill="#DEDEDE" points="12 13.422 8.805 13.422 8.804 13.422 8.804 20.338 12 20.338 12 13.422"/><polygon fill="#DEDEDE" points="12 3.664 8.806 3.664 8.806 9.762 12 9.762 12 3.664"/><path fill="#D43A2F" d="M1.501,0L1.501,0L1.5,0.357l1.254,1.046c1.504,1.204,1.7,1.439,1.7,2.526V24H12v-3.662H8.804v-6.916h0.001H12v-3.66H8.806V3.664H12V0.002L1.501,0L1.501,0z"/></svg>